<svg
  xmlns="http://www.w3.org/2000/svg"
  width="24"
  height="24"
  viewBox="0 0 24 24"
  fill="none"
  stroke="currentColor"
  stroke-width="1.5"
  stroke-linecap="round"
  stroke-linejoin="round"
>
  <polyline points="2.25,3.25 4.25,20.75 19.75,20.75 21.75,3.25" />
  <path
    d="M5.29999 12.5957C5.29998 16.9732 7.71641 18.9227 11.1017 18.9227C13.2613 18.9227 14.8489 18.2223 16.133 16.8798C17.9073 15.0004 18.4793 12.1404 18.8295 11.0314C19.1097 10.1559 19.6 9.02358 19.6 8.42824C19.6 8.04302 19.0863 7.7045 18.7595 7.7045C17.989 7.7045 17.7089 8.04302 17.2536 9.01191C16.7633 10.0742 16.1563 12.0353 15.6777 12.0353C15.4092 12.0353 15.3041 11.5451 15.3041 10.6229L15.3041 2.05454C15.3041 1.58759 15.024 1.15568 14.417 1.15568C13.8216 1.15568 13.5181 1.58759 13.5181 2.05454L13.5181 9.07029C13.238 8.98858 12.9228 8.91853 12.5609 8.87184L12.5609 0.887175C12.5609 0.420243 12.2574 1.21647e-06 11.662 1.11238e-06C11.0667 1.00828e-06 10.7865 0.420242 10.7865 0.887175L10.7865 8.81346C10.4597 8.82515 10.1328 8.86017 9.82929 8.91853L9.82929 1.57592C9.82929 1.10899 9.51412 0.677054 8.93045 0.677054C8.33508 0.677054 8.04325 1.10899 8.04325 1.57592L8.04325 9.40882C7.69305 9.56056 7.37786 9.72399 7.07436 9.91077L7.07436 4.34254C7.07436 3.87558 6.79419 3.44367 6.19885 3.44367C5.59182 3.44367 5.29999 3.87558 5.29999 4.34254L5.29999 12.5957Z"
    stroke="none"
    fill="currentColor"
  />
</svg>
