<svg
  xmlns="http://www.w3.org/2000/svg"
  width="24"
  height="24"
  viewBox="0 0 24 24"
  fill="none"
  stroke="currentColor"
  stroke-width="1.5"
  stroke-linecap="round"
  stroke-linejoin="round"
>
  <polyline points="1.25,3.25 3.25,20.75 20.75,20.75 22.75,3.25" />
  <path
    d="M2 7C2 7 3.35193 7.98323 5.26365 8.48726M22 7C22 7 19.2224 4.97994 16 5.24646"
  />
  <path
    d="M11.5044 19C14.6511 19 16.8527 17.3206 18.0535 13.9619L19.5657 9.79087C19.9659 8.66031 19.6213 7.72732 18.6539 7.38707C17.7977 7.07973 16.9861 7.44195 16.5969 8.342L16.1299 9.43963C16.1188 9.47256 16.0965 9.49452 16.0632 9.49452C16.0187 9.49452 15.9965 9.46159 15.9965 9.41769V2.788C15.9965 1.74524 15.3405 1.08666 14.3064 1.08666C13.9506 1.08666 13.6282 1.2074 13.3835 1.42693C13.2501 0.526875 12.6497 0 11.7713 0C10.9151 0 10.3147 0.537844 10.159 1.40497C9.93668 1.19643 9.63646 1.08666 9.32513 1.08666C8.38002 1.08666 7.75735 1.73427 7.75735 2.71116V3.61122C7.52387 3.36974 7.16807 3.23801 6.80113 3.23801C5.85602 3.23801 5.20001 3.92953 5.20001 4.92838V12.3703C5.20001 16.4206 7.69065 19 11.5044 19ZM11.4488 17.6389C8.32443 17.6389 6.50093 15.6412 6.50093 12.2057V5.07106C6.50093 4.75275 6.72329 4.52224 7.05687 4.52224C7.37932 4.52224 7.61282 4.75275 7.61282 5.07106V9.51647C7.61282 9.84577 7.9019 10.0872 8.22435 10.0872C8.55793 10.0872 8.85813 9.84577 8.85813 9.51647V2.89776C8.85813 2.57943 9.08051 2.34893 9.41407 2.34893C9.73654 2.34893 9.97002 2.57943 9.97002 2.89776V9.07742C9.97002 9.4067 10.2591 9.64817 10.5816 9.64817C10.9151 9.64817 11.2153 9.4067 11.2153 9.07742V1.8111C11.2153 1.4818 11.4488 1.2513 11.7713 1.2513C12.0937 1.2513 12.3272 1.4818 12.3272 1.8111V9.07742C12.3272 9.4067 12.6163 9.64817 12.9388 9.64817C13.2724 9.64817 13.5726 9.4067 13.5726 9.07742V2.89776C13.5726 2.57943 13.8061 2.34893 14.1285 2.34893C14.451 2.34893 14.6845 2.57943 14.6845 2.89776V11.4154C14.6845 11.8325 14.9513 12.1398 15.3294 12.1398C15.6629 12.1398 15.9409 11.9971 16.1633 11.5251L17.3641 8.93472C17.5198 8.60544 17.7977 8.41884 18.098 8.53957C18.4204 8.66031 18.5316 8.96765 18.3759 9.38476L16.8527 13.5558C15.7519 16.5962 13.8839 17.6389 11.4488 17.6389Z"
    fill="currentColor"
    stroke="none"
  />
</svg>
